{"title":"The Guard 2011 DvDScr XviD Feel-Free","uid":6665347,"size":854529513,"categoryP":"video","categoryS":"movies","magnet":"?xt=urn:btih:6ed6d44e5bb20e5d9fa0b78ff445ddecd3897618&amp;dn=The+Guard+2011+DvDScr+XviD+Feel-Free&amp;tr=udp%3A%2F%2Ftracker.openbittorrent.com%3A80&amp;tr=udp%3A%2F%2Fopen.demonii.com%3A1337&amp;tr=udp%3A%2F%2Ftracker.coppersurfer.tk%3A6969&amp;tr=udp%3A%2F%2Fexodus.desync.com%3A6969","seeders":0,"leechers":0,"uploader":"SnowCrash03","files":-1,"time":1315662305,"description":"Genre: Comedy | Thriller\n Language: English\n IMDb: http://www.imdb.com/title/tt1540133/\n Source: IMAGINE Thanks!\n\n-\n\nFormat : AVI\n Format/Info : Audio Video Interleave\n File size : 813 MiB\n Duration : 1h 36mn\n Overall bit rate : 1 177 Kbps\n \nVideo\n ID : 0\n Format : MPEG-4 Visual\n Format profile : Advanced Simple@L5\n Format settings, BVOP : Yes\n Format settings, QPel : No\n Format settings, GMC : No warppoints\n Format settings, Matrix : Default (H.263)\n Codec ID : XVID\n Codec ID/Hint : XviD\n Duration : 1h 36mn\n Bit rate : 943 Kbps\n Width : 640 pixels\n Height : 344 pixels\n Display aspect ratio : 1.860\n Frame rate : 25.000 fps\n Color space : YUV\n Chroma subsampling : 4:2:0\n Bit depth : 8 bits\n Scan type : Progressive\n Bits/(Pixel*Frame) : 0.171\n Stream size : 652 MiB (80%)\n Writing library : XviD 1.2.1 (UTC 2008-12-04)\n \n-\n\nAudio\n ID : 1\n Format : AC-3\n Format/Info : Audio Coding 3\n Mode extension : CM (complete main)\n Codec ID : 2000\n Duration : 1h 36mn\n Bit rate mode : Constant\n Bit rate : 224 Kbps\n Channel(s) : 2 channels\n Channel positions : Front: L R\n Sampling rate : 48.0 KHz\n Bit depth : 16 bits\n Stream size : 155 MiB (19%)\n Alignment : Aligned on interleaves\n Interleave, duration : 40 ms (1.00 video frame)\n Interleave, preload duration : 512 ms\n \n-\n\n\nPlot:\n An unorthodox Irish policeman with a confrontational personality is teamed up with an uptight FBI agent to investigate an international drug-smuggling ring\n \n","torrent":{"xt":"urn:btih:6ed6d44e5bb20e5d9fa0b78ff445ddecd3897618","amp;dn":"The+Guard+2011+DvDScr+XviD+Feel-Free","amp;tr":["udp%3A%2F%2Ftracker.openbittorrent.com%3A80","udp%3A%2F%2Fopen.demonii.com%3A1337","udp%3A%2F%2Ftracker.coppersurfer.tk%3A6969","udp%3A%2F%2Fexodus.desync.com%3A6969"],"infoHash":"6ed6d44e5bb20e5d9fa0b78ff445ddecd3897618","infoHashBuffer":{"type":"Buffer","data":[110,214,212,78,91,178,14,93,159,160,183,143,244,69,221,236,211,137,118,24]},"announce":[],"urlList":[]}}